<svg id="Capa_1" enable-background="new 0 0 512 512" height="512" viewBox="0 0 512 512" width="512" xmlns="http://www.w3.org/2000/svg"><g><path d="m256.001 0c-58.879 0-105 79.065-105 180v30.838c-4.927-.547-9.93-.838-15-.838h-30c-6.957 0-13 4.783-14.599 11.554s1.668 13.752 7.891 16.863c31.895 15.947 51.708 48.006 51.708 83.666v22.917c0 43.058 25.564 79.647 60 96.561v55.439c0 8.284 6.716 15 15 15h60c8.284 0 15-6.716 15-15v-45h15c58.621 0 105-49.576 105-107v-150c0-8.284-6.716-15-15-15-16.869 0-32.457 5.6-45 15.036v-15.036c0-100.935-46.121-180-105-180zm-75 345v-22.918c0-29.835-10.782-58.595-30.307-81.057 50.966 7.168 90.307 51.064 90.307 103.975v62c0 4.819.761 9.462 2.17 13.818-34.799-6.456-62.17-38.556-62.17-75.818zm60 137v-31.104c4.929.728 9.938 1.104 15 1.104h15v30zm35.813-63.168c-3.53-2.747-5.813-7.023-5.813-11.832v-62c0-58.667-37.62-108.704-90-127.278v-37.722c0-57.129 24.443-150 75-150 50.472 0 75 92.264 75 150v165c0 34.357-23.281 64.307-54.187 73.832zm114.187-206.262v132.43c0 36.883-26.818 68.708-61.111 75.613 20.028-20.367 31.111-47.249 31.111-75.613 0-10.534 0-75.727 0-90 0-19.556 12.539-36.239 30-42.43z"/><circle cx="286.001" cy="255" r="15"/><circle cx="256.001" cy="195" r="15"/><circle cx="286.001" cy="135" r="15"/><circle cx="226.001" cy="135" r="15"/><circle cx="256.001" cy="75" r="15"/></g></svg>