<svg width="576" height="448" viewBox="0 0 576 448" fill="none" xmlns="http://www.w3.org/2000/svg">
<path d="M395.4 388.8C352 410.4 303.5 423.2 254.6 423.2C172.4 423.2 103.5 383.1 103.5 383.1C87.4 383.1 68.1 448 40.2 448C13.2 448 0 424 0 409.5C0 376.4 63.6 350.6 63.6 332.2C63.6 332.2 51.1 311 51.1 273C51.1 171.8 132.4 99.6 223.7 69.7C289.6 48.1 429.7 73.2 474.4 31.2C492.1 15 500.8 0 527.8 0C564.1 0 576 93.2 576 120.3C576 231.2 521.5 326.8 395.4 388.8ZM141.1 313.2C204.6 223.3 285.6 184.4 398.8 193.2C407.6 193.9 415.3 187.3 416 178.5C416.7 169.7 410.1 162 401.3 161.3C277.3 151.7 185.4 195.2 115 294.8C109.9 302 111.6 312 118.8 317.1C126 322.2 136 320.5 141.1 313.2Z" fill="black"/>
</svg>
